<?xml version="1.0" encoding="utf-8"?>
<!-- Generator: Adobe Illustrator 24.2.1, SVG Export Plug-In . SVG Version: 6.00 Build 0)  -->
<svg version="1.1" id="Capa_1" xmlns="http://www.w3.org/2000/svg" xmlns:xlink="http://www.w3.org/1999/xlink" x="0px" y="0px"
	 viewBox="0 0 512 512" style="enable-background:new 0 0 512 512;" xml:space="preserve">
<style type="text/css">
	.st0{fill:#FFFFFF;}
</style>
<path class="st0" d="M256,0C114.6,0,0,114.6,0,256s114.6,256,256,256s256-114.6,256-256S397.4,0,256,0z M360.1,362.8
	c-2.8,4.2-7.4,6.5-12.1,6.5c-2.7,0-5.5-0.8-8-2.4c-45.3-29.8-96.4-34.7-131.4-33.5c-38.6,1.3-66.7,10.1-67,10.1
	c-7.6,2.4-15.8-1.8-18.3-9.4c-2.4-7.6,1.8-15.8,9.4-18.3c1.3-0.4,31.5-9.9,73.9-11.5c25-0.9,49.1,1.1,71.7,6
	c28.5,6.2,54.6,17.1,77.6,32.2C362.6,347,364.5,356.1,360.1,362.8z M387.2,300.6c-3.5,5.3-9.3,8.2-15.3,8.2c-3.5,0-7-1-10.1-3.1
	c-49.7-33-108-39.3-148.2-38.7c-44.5,0.6-77.4,9.4-77.7,9.5c-9.7,2.7-19.8-3-22.5-12.8c-2.7-9.7,3-19.8,12.8-22.5
	c1.5-0.4,36.9-10,85.9-10.8c28.8-0.5,56.5,2.3,82.2,8.1c32.6,7.4,62.1,19.7,87.7,36.8C390.5,280.9,392.8,292.2,387.2,300.6z
	 M417.8,247.8c-3.9,0-7.8-1-11.4-3c-59.9-33.8-127.6-49.5-201.2-46.5c-50.4,2-86.7,12.6-93.4,14.7c-0.3,0.1-0.6,0.2-0.9,0.3
	c-0.1,0-0.2,0.1-0.2,0.1l0,0c-2,0.6-4.1,0.9-6.3,0.9c-12.8,0-23.1-10.4-23.1-23.1c0-9.9,6.2-18.3,14.8-21.6l0,0c0,0,0.1,0,0.1,0
	c0.7-0.3,1.3-0.5,2-0.7c9.4-3,48.6-14.4,103.4-16.9c36.2-1.6,72,1,106.3,7.7c43.1,8.5,83.9,23.5,121.4,44.7
	c11.2,6.3,15.1,20.5,8.8,31.7C433.8,243.5,425.9,247.8,417.8,247.8z"/>
</svg>
